HIERARCHY
ROOT Hips
{
	OFFSET -0.001795 -0.223333 0.028219
	CHANNELS 6 Xposition Yposition Zposition Zrotation Yrotation Xrotation 
	JOINT LeftUpLeg
	{
		OFFSET 0.069520 -0.091406 -0.006815
		CHANNELS 3 Zrotation Yrotation Xrotation
		JOINT LeftLeg
		{
			OFFSET 0.034277 -0.375199 -0.004496
			CHANNELS 3 Zrotation Yrotation Xrotation
			JOINT LeftFoot
			{
				OFFSET -0.013596 -0.397961 -0.043693
				CHANNELS 3 Zrotation Yrotation Xrotation
				JOINT LeftToe
				{
					OFFSET 0.026358 -0.055791 0.119288
					CHANNELS 3 Zrotation Yrotation Xrotation
					End Site
					{
						OFFSET 0.000000 0.000000 0.000000
					}
				}
			}
		}
	}
	JOINT RightUpLeg
	{
		OFFSET -0.067670 -0.090522 -0.004320
		CHANNELS 3 Zrotation Yrotation Xrotation
		JOINT RightLeg
		{
			OFFSET -0.038290 -0.382569 -0.008850
			CHANNELS 3 Zrotation Yrotation Xrotation
			JOINT RightFoot
			{
				OFFSET 0.015774 -0.398415 -0.042312
				CHANNELS 3 Zrotation Yrotation Xrotation
				JOINT RightToe
				{
					OFFSET -0.025372 -0.048144 0.123348
					CHANNELS 3 Zrotation Yrotation Xrotation
					End Site
					{
						OFFSET 0.000000 0.000000 0.000000
					}
				}
			}
		}
	}
	JOINT Spine
	{
		OFFSET -0.002533 0.108963 -0.026696
		CHANNELS 3 Zrotation Yrotation Xrotation
		JOINT Spine1
		{
			OFFSET 0.005487 0.135180 0.001092
			CHANNELS 3 Zrotation Yrotation Xrotation
			JOINT Spine2
			{
				OFFSET 0.001457 0.052922 0.025425
				CHANNELS 3 Zrotation Yrotation Xrotation
				JOINT Neck
				{
					OFFSET -0.002778 0.213870 -0.042857
					CHANNELS 3 Zrotation Yrotation Xrotation
					JOINT Head
					{
						OFFSET 0.005152 0.064970 0.051349
						CHANNELS 3 Zrotation Yrotation Xrotation
						End Site
						{
							OFFSET 0.000000 0.000000 0.000000
						}
					}
				}
				JOINT LeftShoulder
				{
					OFFSET 0.078845 0.121749 -0.034090
					CHANNELS 3 Zrotation Yrotation Xrotation
					JOINT LeftArm
					{
						OFFSET 0.090977 0.030469 -0.008868
						CHANNELS 3 Zrotation Yrotation Xrotation
						JOINT LeftForeArm
						{
							OFFSET 0.259612 -0.012772 -0.027456
							CHANNELS 3 Zrotation Yrotation Xrotation
							JOINT LeftHand
							{
								OFFSET 0.249234 0.008986 -0.001171
								CHANNELS 3 Zrotation Yrotation Xrotation
								End Site
								{
									OFFSET 0.000000 0.000000 0.000000
								}
							}
						}
					}
				}
				JOINT RightShoulder
				{
					OFFSET -0.081759 0.118833 -0.038615
					CHANNELS 3 Zrotation Yrotation Xrotation
					JOINT RightArm
					{
						OFFSET -0.096012 0.032551 -0.009143
						CHANNELS 3 Zrotation Yrotation Xrotation
						JOINT RightForeArm
						{
							OFFSET -0.253742 -0.013329 -0.021401
							CHANNELS 3 Zrotation Yrotation Xrotation
							JOINT RightHand
							{
								OFFSET -0.255298 0.007772 -0.005559
								CHANNELS 3 Zrotation Yrotation Xrotation
								End Site
								{
									OFFSET 0.000000 0.000000 0.000000
								}
							}
						}
					}
				}
			}
		}
	}
}
MOTION
Frames: 15
Frame Time: 0.050000
0.000000 0.945418 0.000000 -1.409236 7.996416 0.464255 6.211844 -0.057610 5.904884 -4.768614 0.354857 -6.458505 2.080889 8.945198 12.480812 0.000000 0.000000 0.000000 -1.532388 -0.294503 3.223864 1.900406 -0.244011 -0.424497 0.774149 -1.157530 8.270110 0.000000 0.000000 0.000000 -2.389345 -0.114413 5.831140 5.572649 -0.741195 -21.655141 -2.643156 -2.932060 26.824950 0.459367 1.826151 -29.284704 0.000000 0.000000 0.000000 -41.535900 0.033724 -4.902199 -37.035526 -0.038499 -5.596252 -11.188294 -32.101442 4.642837 0.000000 0.000000 0.000000 33.824205 2.615208 0.749843 42.188929 1.064226 -6.071228 2.532025 32.898927 2.332924 0.000000 0.000000 0.000000 
0.000895 0.944610 0.001844 -1.260032 8.133654 1.375785 6.268592 -0.083452 5.554334 -5.223863 0.345462 -7.376769 1.997875 8.859350 12.597370 0.000000 0.000000 0.000000 -2.524965 -0.155304 2.091903 3.355318 -0.419227 0.114166 0.708352 -1.220934 8.081430 0.000000 0.000000 0.000000 -2.722598 -0.052101 4.225248 5.675337 -0.814483 -20.854201 -3.027937 -2.965997 27.415708 0.359741 1.974149 -30.843664 0.000000 0.000000 0.000000 -41.455687 1.278194 -5.941898 -37.149766 0.096627 -5.676255 -12.540504 -31.671086 4.978017 0.000000 0.000000 0.000000 33.686646 2.234976 0.558208 42.869787 1.307733 -6.151206 1.931393 33.233706 2.239746 0.000000 0.000000 0.000000 
0.002898 0.943913 0.003894 -0.901264 8.560618 1.582668 6.162984 -0.087227 5.404736 -5.829687 0.352581 -7.254479 1.784605 8.508672 12.409907 0.000000 0.000000 0.000000 -2.808037 -0.195253 2.615606 3.071528 -0.393363 -0.745743 0.505480 -1.567464 7.935384 0.000000 0.000000 0.000000 -2.431826 -0.055741 3.896407 4.806871 -0.580705 -20.510516 -2.957191 -3.158215 28.184303 -0.196672 2.281420 -31.157098 0.000000 0.000000 0.000000 -40.284205 1.013217 -5.507053 -37.427914 -0.142665 -5.727441 -11.472117 -30.998310 4.564650 0.000000 0.000000 0.000000 33.699321 2.978781 1.157471 43.123334 1.873287 -6.067607 0.403150 31.057932 1.658187 0.000000 0.000000 0.000000 
0.006160 0.943190 0.006518 -0.882869 8.811827 1.717486 5.805624 -0.060268 5.537363 -5.514587 0.336037 -7.440017 1.736138 8.348305 12.055307 0.000000 0.000000 0.000000 -3.119919 -0.177109 2.486485 3.316273 -0.422337 -0.349696 0.366057 -1.775498 7.728072 0.000000 0.000000 0.000000 -2.431879 -0.055817 3.923967 5.121143 -0.625825 -21.133921 -3.277672 -2.946796 29.094093 0.143572 2.232629 -32.478634 0.000000 0.000000 0.000000 -41.320513 1.513848 -6.333541 -36.111532 0.367625 -5.618323 -11.453373 -31.657351 4.641951 0.000000 0.000000 0.000000 34.056528 3.128759 1.553553 42.721768 1.960176 -6.154119 -0.051518 30.992724 1.578933 0.000000 0.000000 0.000000 
0.011086 0.942472 0.009966 -0.960806 9.009462 1.505009 5.413283 -0.026201 5.572993 -5.128746 0.343138 -6.661784 1.802646 8.237342 11.313388 0.000000 0.000000 0.000000 -3.273298 -0.228249 3.103378 3.257120 -0.417892 -0.517659 0.302838 -1.881965 7.685668 0.000000 0.000000 0.000000 -2.257325 -0.079257 4.480351 5.250942 -0.693681 -20.577066 -3.319995 -2.835637 28.345801 0.363832 2.145486 -32.119874 0.000000 0.000000 0.000000 -40.860532 1.320133 -6.239134 -35.694634 0.916333 -5.614085 -11.741296 -30.791449 4.554022 0.000000 0.000000 0.000000 34.164672 3.311719 1.746821 41.911486 1.411136 -6.168590 0.230111 30.497908 1.585980 0.000000 0.000000 0.000000 
0.017922 0.941880 0.014578 -1.156680 9.460648 1.520927 5.000516 0.008382 5.832326 -4.622797 0.324053 -6.651140 1.711970 7.941175 10.728102 0.000000 0.000000 0.000000 -3.695916 -0.246732 3.422876 3.771903 -0.486587 -0.422603 0.190763 -2.137216 7.870561 0.000000 0.000000 0.000000 -2.277253 -0.085413 4.710486 4.970009 -0.574157 -21.081311 -3.008880 -3.179339 29.013426 0.014499 2.349056 -32.888959 0.000000 0.000000 0.000000 -40.472439 1.465584 -6.234274 -36.012647 0.945951 -5.733960 -11.192906 -30.076569 4.304009 0.000000 0.000000 0.000000 34.292505 3.258859 1.745392 41.671639 1.022887 -6.320522 0.404540 30.677597 1.647086 0.000000 0.000000 0.000000 
0.026356 0.941594 0.020662 -1.171949 9.306676 1.601418 4.380887 0.069920 5.891766 -4.388404 0.329914 -6.007436 1.889785 8.045387 10.229162 0.000000 0.000000 0.000000 -4.026644 -0.248678 3.609697 3.462965 -0.443857 -0.105281 0.248069 -2.059855 7.980279 0.000000 0.000000 0.000000 -2.160285 -0.098153 4.982508 5.028147 -0.599526 -20.983447 -3.119471 -3.529145 29.018317 -0.198695 2.385230 -32.951013 0.000000 0.000000 0.000000 -40.202438 1.420629 -5.867161 -36.449406 0.900779 -5.875519 -10.533919 -29.571589 4.083332 0.000000 0.000000 0.000000 33.732689 3.699993 1.853147 41.729702 0.139927 -6.515889 1.404882 32.207706 1.988155 0.000000 0.000000 0.000000 
0.036093 0.940906 0.028478 -1.102224 9.453811 1.823199 3.530298 0.145548 5.920037 -3.948653 0.320442 -5.402481 1.950898 7.947806 9.616164 0.000000 0.000000 0.000000 -4.466896 -0.234216 3.607097 3.158195 -0.400315 0.596880 0.139963 -2.275638 7.979499 0.000000 0.000000 0.000000 -2.243343 -0.104386 5.376685 4.955427 -0.557639 -21.330032 -3.015733 -3.694011 29.127359 -0.542962 2.550824 -33.029536 0.000000 0.000000 0.000000 -39.200270 1.312475 -5.543043 -37.226191 1.767120 -6.272789 -10.996958 -30.022538 4.282428 0.000000 0.000000 0.000000 33.050939 3.621064 1.773756 41.751154 -1.219633 -6.910270 4.047794 35.410384 3.027188 0.000000 0.000000 0.000000 
0.046792 0.940178 0.038248 -1.006492 9.485048 2.064047 2.368764 0.269838 6.328916 -3.102503 0.289853 -5.232925 2.033218 7.929230 9.173237 0.000000 0.000000 0.000000 -4.614697 -0.213993 3.425465 2.193447 -0.254104 1.792790 0.001367 -2.548633 7.920173 0.000000 0.000000 0.000000 -2.395243 -0.105647 5.768271 5.028554 -0.577217 -21.314293 -3.034790 -3.956219 28.838338 -0.639956 2.539640 -32.564980 0.000000 0.000000 0.000000 -38.483108 1.594499 -5.503963 -38.041014 1.766738 -6.441102 -11.864086 -30.343387 4.589341 0.000000 0.000000 0.000000 31.738500 3.441011 1.540492 42.674476 -2.607275 -7.409948 6.484053 38.467262 4.176025 0.000000 0.000000 0.000000 
0.058199 0.938156 0.049882 -0.768307 9.638413 2.392499 1.261057 0.385589 6.582664 -2.626232 0.268655 -4.689214 2.123848 7.806009 8.381933 0.000000 0.000000 0.000000 -5.189461 -0.163885 2.962470 1.712024 -0.158974 3.649791 -0.226679 -2.928225 7.558577 0.000000 0.000000 0.000000 -2.368115 -0.115754 6.128833 4.769713 -0.465546 -21.969064 -3.227321 -4.121782 29.254383 -1.030682 2.732420 -32.859280 0.000000 0.000000 0.000000 -37.302295 1.493106 -5.144614 -38.750601 2.183356 -6.748676 -12.724794 -31.482452 5.033003 0.000000 0.000000 0.000000 30.924893 3.340029 1.461806 42.742129 -4.178145 -7.913445 11.286618 42.781712 6.589337 0.000000 0.000000 0.000000 
0.070333 0.934666 0.063321 -0.555900 9.914973 2.860032 0.513634 0.474462 6.921399 -2.738719 0.270243 -4.331158 2.190674 7.528772 7.289609 0.000000 0.000000 0.000000 -5.123009 -0.091237 1.880677 0.202614 0.144607 6.616756 -0.693656 -3.733104 6.850449 0.000000 0.000000 0.000000 -2.313140 -0.121134 6.273761 4.480407 -0.390609 -21.761653 -3.482391 -4.498566 29.087755 -1.677971 3.010279 -32.442342 0.000000 0.000000 0.000000 -36.708026 1.747078 -5.142044 -38.792463 2.094579 -6.747565 -14.469875 -33.911659 6.002814 0.000000 0.000000 0.000000 29.826272 3.330348 1.370983 43.765992 -5.732576 -8.526760 16.586191 47.479094 9.817564 0.000000 0.000000 0.000000 
0.083219 0.930626 0.078736 -0.036838 11.219251 3.506669 -0.224649 0.538032 6.994525 -3.060906 0.272918 -3.600219 1.776906 6.397930 6.068774 0.000000 0.000000 0.000000 -5.076389 0.045356 -0.416588 -0.911241 0.445116 12.351014 -2.135986 -6.688365 6.198683 0.000000 0.000000 0.000000 -2.386746 -0.134773 6.890077 4.205874 -0.247340 -22.554694 -3.596211 -5.681544 29.716147 -1.559666 2.918996 -33.807107 0.000000 0.000000 0.000000 -36.365507 1.868600 -4.996958 -38.821444 1.993545 -6.815901 -18.110314 -38.569047 8.243369 0.000000 0.000000 0.000000 29.211382 2.799920 0.914887 43.311749 -7.289440 -8.934769 24.517295 53.170315 15.286153 0.000000 0.000000 0.000000 
0.096236 0.925060 0.097669 0.441167 11.837337 3.569503 -1.237019 0.693605 7.834381 -2.913611 0.257591 -2.520657 1.804722 5.820328 4.576509 0.000000 0.000000 0.000000 -4.395275 0.230530 -3.398958 -2.631836 0.953574 20.162217 -3.994713 -10.860331 7.611894 0.000000 0.000000 0.000000 -2.648881 -0.154916 8.055877 4.931043 -0.406601 -22.849234 -4.464001 -5.463531 30.185307 -0.886662 2.699475 -34.329781 0.000000 0.000000 0.000000 -36.461212 2.698273 -5.951281 -37.283733 1.895224 -6.446789 -25.574238 -45.828607 13.159274 0.000000 0.000000 0.000000 28.191151 2.456425 0.969552 44.051268 -8.237252 -9.472377 35.695658 58.594477 24.073952 0.000000 0.000000 0.000000 
0.108520 0.919720 0.121472 0.381565 13.396657 3.231393 -1.321486 0.730596 8.568584 -2.659214 0.210470 -0.209290 1.549276 4.681723 3.088739 0.000000 0.000000 0.000000 -3.529177 0.440419 -6.633737 -2.810633 0.796614 30.188083 -5.858782 -14.672742 10.941224 0.000000 0.000000 0.000000 -2.473985 -0.230541 9.331469 5.258681 -0.476648 -22.624962 -4.279156 -6.154566 30.259825 -1.228465 2.900969 -34.381908 0.000000 0.000000 0.000000 -36.757168 1.314570 -5.095799 -36.184194 1.191692 -6.023065 -35.285886 -53.610281 20.877100 0.000000 0.000000 0.000000 26.455064 0.681571 -0.058948 43.935477 -10.094018 -10.022094 54.076355 61.661447 38.097740 0.000000 0.000000 0.000000 
0.119459 0.913210 0.150999 0.208571 14.432004 3.057794 -1.176771 0.806640 10.424083 -2.351811 0.149507 1.567115 1.432916 2.824773 0.031578 0.000000 0.000000 0.000000 -3.814535 0.649446 -12.140396 -1.094862 -0.664455 40.762155 -7.570322 -17.535751 18.497144 0.000000 0.000000 0.000000 -2.538883 -0.278818 10.364314 6.254399 -0.689845 -23.063881 -5.757701 -8.788861 30.812174 0.114306 1.884141 -34.387131 0.000000 0.000000 0.000000 -37.837274 3.173281 -5.618674 -34.564596 -0.133627 -5.728167 -50.752271 -61.991929 35.491159 0.000000 0.000000 0.000000 25.804269 0.718854 -0.728452 43.795939 -13.148337 -10.815364 73.450719 63.714662 53.902346 0.000000 0.000000 0.000000 
